# xmcd
#
# Track frame offsets: 
#        150
#        23018
#        43355
#        59434
#        83442
#        106240
#        128381
#        153400
#        182817
#        200228
#        216196
#        240130
#        250512
#
# Disc length: 3491 seconds
#
# Revision: 0
# Processed by: cddbd v1.5.2PL0 Copyright (c) Steve Scherf et al.
# Submitted via: ExactAudioCopy v1.3
#
DISCID=a20da10d
DTITLE=Müslüm Gürses - Yaranamadım
DYEAR=1984
DGENRE=Folk
TTITLE0=yaranamadım
TTITLE1=Allah muhtaç etmesin
TTITLE2=alışacağım
TTITLE3=aşlarda pazarda satılır oldu
TTITLE4=çığlık
TTITLE5=nankör
TTITLE6=çare sende Allahım
TTITLE7=sana benziyor
TTITLE8=ağlattı kader
TTITLE9=istemem sevme beni
TTITLE10=bir durak görmüyorum
TTITLE11=hasta düştüm
TTITLE12=bakkal mahmud un kızı
EXTD=
EXTT0=
EXTT1=
EXTT2=
EXTT3=
EXTT4=
EXTT5=
EXTT6=
EXTT7=
EXTT8=
EXTT9=
EXTT10=
EXTT11=
EXTT12=
PLAYORDER=
